# xmcd
#
# Track frame offsets:
#	150
#	14357
#	28187
#	41755
#	58473
#	74674
#	92915
#	105041
#	117767
#	133231
#	149738
#
# Disc length: 2181 seconds
#
# Revision: 1
# Processed by: cddbd v1.5.2PL0 Copyright (c) Steve Scherf et al.
# Submitted via: audiograbber 1.83.01
#
DISCID=a808830b
DTITLE=Eli Young Band - Fingerprints
DYEAR=2017
DGENRE=Country
TTITLE0=Saltwater Gospel
TTITLE1=Fingerprints
TTITLE2=Never Again
TTITLE3=Old Songs
TTITLE4=Drive
TTITLE5=Skin and Bones
TTITLE6=A Heart Needs a Break
TTITLE7=Once
TTITLE8=Never Land
TTITLE9=God Love the Rain
TTITLE10=The Days I Feel Alone
EXTD=
EXTT0=
EXTT1=
EXTT2=
EXTT3=
EXTT4=
EXTT5=
EXTT6=
EXTT7=
EXTT8=
EXTT9=
EXTT10=
PLAYORDER=
